<svg xmlns="http://www.w3.org/2000/svg" viewBox="0 0 64 64">
  <!-- Fundo circular -->
  <circle cx="32" cy="32" r="30" fill="#3b82f6" />
  
  <!-- Iniciais CM estilizadas -->
  <text x="32" y="40" font-family="Inter, sans-serif" font-size="28" font-weight="bold" text-anchor="middle" fill="white">CM</text>
  
  <!-- Símbolo Java (xícara de café estilizada) -->
  <g transform="translate(46, 18) scale(0.14)">
    <path d="M28.3,109.9c-7-4.3-12.4-9.9-15.5-16.8C11.9,90.4,11,83.4,13,78.1c2.2-5.7,8.4-8.8,16.4-8.2c6.7,0.5,13.3,1.2,20,1.2
      c11.9,0,22.2-3.5,30.5-13.1c5.9-6.9,9.7-15.1,13.8-23.2c2.6-5.1,5.4-10.1,8.8-14.6c5.6-7.4,12.9-11.7,21.7-13.4
      c6.1-1.1,11.8-0.2,17.5,1.8c3.5,1.2,4.2,2.6,2.7,6.1c-2.5,5.8-5.4,11.4-8.4,16.9c-0.5,0.9-2.5,1.5-3.8,1.4c-7.3-0.2-11.9,3.5-15.4,9.1
      c-2.1,3.3-3.8,6.9-5.4,10.5c-3.8,8.6-7.5,17.1-14.4,23.9c-10.8,10.7-24.3,13.4-38.8,13.7c-4.2,0.1-8.4-0.7-12.3-1.9
      c-1.1-0.3-2.5-2-2.5-3.1c-0.2-4.4,3.3-5.8,6.6-7.2c3.4-1.4,7-2.1,10.5-3.3c2.8-1,5.5-2.4,8.2-3.6c-9.9-3.3-19.3-6.5-28.6-9.6
      c-0.2,0.2-0.3,0.2-0.3,0.3c0.4,0.5,0.8,1,1.3,1.5c8.1,7.9,17.5,13.9,28.4,17.2c1.7,0.5,3.5,0.8,5.3,1.1c1.1,0.2,2.2,0.3,3.3,0.3
      c3.3,0,5,1.4,5.4,4.6c0.4,3.5-1.5,5.3-4.6,6.4C61.1,107.5,42.9,109.7,28.3,109.9z" fill="white"/>
  </g>
</svg>